<svg width="200" height="50" viewBox="0 0 200 50" fill="none" xmlns="http://www.w3.org/2000/svg">
<path d="M0 37.3211L9.42023 0L15.8149 24.2211L18.6606 12.1678H24.8589L15.8476 49.6361L9.45294 24.8916L6.57454 37.3211H0Z" fill="url(#paint0_linear_1_4)"/>
<path d="M24.8589 12.1678L31.4498 37.3211H24.8589L21.817 24.8099L24.8589 12.1678Z" fill="url(#paint1_linear_1_4)"/>
<path d="M50.6174 19.8871C51.5006 19.8871 52.2856 20.0507 52.9561 20.3941C53.6266 20.7376 54.15 21.2446 54.5261 21.9478C54.9023 22.6347 55.0986 23.5179 55.0986 24.5646V30.8938H53.6266V24.6954C53.6266 23.5506 53.3323 22.6838 52.7599 22.095C52.1874 21.5062 51.3861 21.2119 50.3394 21.2119C49.5707 21.2119 48.8838 21.3754 48.3114 21.6861C47.739 21.9969 47.2974 22.4548 46.9867 23.0272C46.676 23.616 46.5124 24.3192 46.5124 25.1533V30.8774H45.0405V19.9853H46.447V22.9782L46.218 22.4221C46.5615 21.6371 47.1175 21.0156 47.8862 20.5577C48.6549 20.1161 49.5707 19.8871 50.6174 19.8871Z" fill="#4EAA60"/>
<path d="M59.825 17.5812C59.5143 17.5812 59.269 17.4831 59.0564 17.2704C58.8438 17.0578 58.7456 16.8125 58.7456 16.5181C58.7456 16.2237 58.8438 15.9784 59.0564 15.7822C59.269 15.5859 59.5143 15.4878 59.825 15.4878C60.1358 15.4878 60.3811 15.5859 60.5937 15.7822C60.8063 15.9784 60.9044 16.2237 60.9044 16.5018C60.9044 16.8125 60.8063 17.0578 60.61 17.2704C60.4138 17.4831 60.1521 17.5812 59.825 17.5812ZM59.0891 30.8938V20.0017H60.561V30.8938H59.0891Z" fill="#4EAA60"/>
<path d="M69.1962 30.9919C68.1168 30.9919 67.1519 30.7466 66.3014 30.2723C65.451 29.798 64.7805 29.1438 64.3062 28.2934C63.8155 27.4593 63.5866 26.4944 63.5866 25.415C63.5866 24.3192 63.8319 23.3543 64.3062 22.5366C64.7968 21.7025 65.451 21.0483 66.3014 20.5904C67.1519 20.1161 68.1168 19.8871 69.1962 19.8871C70.1284 19.8871 70.9625 20.067 71.7148 20.4268C72.4671 20.7866 73.0559 21.3263 73.4811 22.0459L72.3853 22.7983C72.0092 22.2422 71.5512 21.8333 70.9952 21.5717C70.4391 21.31 69.834 21.1792 69.1962 21.1792C68.4275 21.1792 67.7243 21.3591 67.1028 21.7025C66.4813 22.0623 65.9907 22.5529 65.6309 23.1908C65.2711 23.8286 65.0912 24.5809 65.0912 25.4313C65.0912 26.2818 65.2711 27.0341 65.6309 27.6719C65.9907 28.3097 66.4813 28.8004 67.1028 29.1602C67.7243 29.52 68.4275 29.6835 69.1962 29.6835C69.8504 29.6835 70.4555 29.5527 70.9952 29.291C71.5512 29.0294 72.0092 28.6205 72.3853 28.0808L73.4811 28.8331C73.0559 29.5363 72.4671 30.076 71.7148 30.4358C70.9625 30.812 70.112 30.9919 69.1962 30.9919Z" fill="#4EAA60"/>
<path d="M80.6117 30.9919C79.565 30.9919 78.6164 30.7466 77.7823 30.2723C76.9482 29.798 76.2777 29.1438 75.8034 28.2934C75.3128 27.4593 75.0838 26.4944 75.0838 25.415C75.0838 24.3192 75.3291 23.3543 75.8034 22.5366C76.2941 21.7025 76.9482 21.0483 77.7823 20.5904C78.6164 20.1161 79.565 19.8871 80.628 19.8871C81.7074 19.8871 82.6723 20.1161 83.5064 20.5904C84.3405 21.0647 84.9947 21.7189 85.4853 22.5366C85.9596 23.3707 86.2049 24.3356 86.2049 25.415C86.2049 26.4944 85.9596 27.4593 85.4853 28.2934C85.011 29.1275 84.3405 29.7817 83.5064 30.2723C82.6233 30.7466 81.6747 30.9919 80.6117 30.9919ZM80.6117 29.6835C81.3967 29.6835 82.0999 29.5036 82.7051 29.1602C83.3102 28.8004 83.8008 28.3097 84.1443 27.6719C84.5041 27.0341 84.6676 26.2818 84.6676 25.4477C84.6676 24.5973 84.4877 23.845 84.1443 23.2071C83.7845 22.5693 83.3102 22.0787 82.7051 21.7189C82.0999 21.3591 81.3967 21.1955 80.628 21.1955C79.8594 21.1955 79.1561 21.3754 78.551 21.7189C77.9459 22.0787 77.4552 22.5693 77.0954 23.2071C76.7356 23.845 76.5557 24.5973 76.5557 25.4477C76.5557 26.2981 76.7356 27.0341 77.0954 27.6719C77.4552 28.3097 77.9459 28.8167 78.551 29.1602C79.1561 29.5036 79.843 29.6835 80.6117 29.6835Z" fill="#4EAA60"/>
<path d="M89.1815 30.8938V15.4878H90.6534V30.8938H89.1815Z" fill="#4EAA60"/>
<path d="M97.833 30.9919C97.0153 30.9919 96.3121 30.8611 95.7069 30.583C95.1018 30.305 94.6439 29.9452 94.3332 29.4546C94.0224 28.9803 93.8589 28.4242 93.8589 27.8028C93.8589 27.2303 93.9897 26.7234 94.2677 26.2491C94.5294 25.7911 94.9873 25.415 95.5925 25.1206C96.2139 24.8426 97.0317 24.6954 98.0784 24.6954H101.84V25.7911H98.1274C97.0807 25.7911 96.3448 25.971 95.9359 26.3472C95.527 26.7234 95.3308 27.1813 95.3308 27.7373C95.3308 28.3588 95.5761 28.8658 96.0504 29.2256C96.541 29.6018 97.2116 29.7817 98.0784 29.7817C98.9124 29.7817 99.632 29.5854 100.221 29.2093C100.826 28.8331 101.267 28.277 101.546 27.5574L101.873 28.5714C101.595 29.291 101.12 29.8634 100.433 30.2887C99.7302 30.7793 98.8797 30.9919 97.833 30.9919ZM101.595 30.8938V28.4896L101.529 28.0971V24.0739C101.529 23.1417 101.267 22.4385 100.744 21.9315C100.221 21.4408 99.4521 21.1792 98.4382 21.1792C97.7349 21.1792 97.0644 21.2936 96.4265 21.539C95.7887 21.7679 95.249 22.0787 94.8074 22.4712L94.1369 21.3754C94.693 20.9011 95.3471 20.5413 96.1322 20.2797C96.9008 20.018 97.7186 19.9035 98.5853 19.9035C99.9918 19.9035 101.088 20.247 101.856 20.9502C102.625 21.6534 103.001 22.7165 103.001 24.1393V30.9101H101.595V30.8938Z" fill="#4EAA60"/>
<path d="M109.935 30.9919C109.036 30.9919 108.185 30.8611 107.384 30.6157C106.583 30.3541 105.945 30.0433 105.503 29.6508L106.174 28.4896C106.615 28.8167 107.188 29.1111 107.875 29.3564C108.562 29.6018 109.298 29.7162 110.05 29.7162C111.08 29.7162 111.833 29.5527 112.29 29.2256C112.748 28.8985 112.977 28.4733 112.977 27.9336C112.977 27.5247 112.847 27.214 112.601 26.985C112.34 26.7561 112.012 26.5762 111.587 26.4617C111.178 26.3472 110.704 26.2491 110.197 26.1673C109.69 26.0855 109.183 25.9874 108.676 25.8729C108.169 25.7584 107.711 25.5949 107.302 25.3823C106.893 25.1697 106.55 24.8753 106.288 24.4991C106.027 24.123 105.912 23.6323 105.912 23.0109C105.912 22.4221 106.076 21.8824 106.403 21.4081C106.73 20.9338 107.221 20.574 107.858 20.296C108.496 20.018 109.281 19.8871 110.213 19.8871C110.917 19.8871 111.62 19.9853 112.323 20.1652C113.026 20.3451 113.615 20.5904 114.073 20.9011L113.435 22.0787C112.945 21.7516 112.438 21.5062 111.882 21.3591C111.326 21.2119 110.77 21.1464 110.213 21.1464C109.232 21.1464 108.513 21.31 108.038 21.6534C107.58 21.9969 107.335 22.4221 107.335 22.9455C107.335 23.3543 107.466 23.6814 107.711 23.9267C107.973 24.1557 108.3 24.3519 108.725 24.4828C109.15 24.6136 109.608 24.7281 110.115 24.8099C110.622 24.8916 111.129 24.9898 111.636 25.1043C112.143 25.2187 112.601 25.3823 113.026 25.5785C113.452 25.7748 113.795 26.0692 114.04 26.429C114.302 26.7888 114.417 27.2794 114.417 27.8682C114.417 28.506 114.237 29.0621 113.893 29.52C113.533 29.9779 113.026 30.3377 112.356 30.5994C111.702 30.8611 110.884 30.9919 109.935 30.9919Z" fill="#4EAA60"/>
<path d="M136.217 19.6746C137.1 19.6746 137.885 19.8545 138.572 20.1979C139.259 20.5414 139.799 21.0811 140.175 21.7843C140.568 22.5039 140.764 23.4198 140.764 24.5319V30.8774H138.163V24.859C138.163 23.8777 137.951 23.1417 137.526 22.6511C137.1 22.1605 136.479 21.9315 135.677 21.9315C135.105 21.9315 134.614 22.0623 134.173 22.3076C133.731 22.553 133.404 22.9291 133.159 23.4034C132.914 23.894 132.799 24.4992 132.799 25.2515V30.8774H130.199V24.859C130.199 23.8777 129.986 23.1417 129.561 22.6511C129.136 22.1605 128.514 21.9315 127.713 21.9315C127.14 21.9315 126.65 22.0623 126.208 22.3076C125.767 22.553 125.44 22.9291 125.194 23.4034C124.949 23.894 124.834 24.4992 124.834 25.2515V30.8774H122.234V19.789H124.704V22.7329L124.262 21.8661C124.638 21.1465 125.178 20.6068 125.897 20.2306C126.617 19.8545 127.418 19.6746 128.334 19.6746C129.365 19.6746 130.28 19.9362 131.049 20.4432C131.818 20.9502 132.325 21.7352 132.57 22.7656L131.556 22.4058C131.916 21.5717 132.505 20.9175 133.339 20.4105C134.157 19.9362 135.121 19.6746 136.217 19.6746Z" fill="#4EAA60"/>
<path d="M145.376 17.9737C144.885 17.9737 144.493 17.8265 144.182 17.5157C143.871 17.205 143.708 16.8452 143.708 16.42C143.708 15.9784 143.871 15.6023 144.182 15.3079C144.493 15.0135 144.885 14.8663 145.376 14.8663C145.866 14.8663 146.259 15.0135 146.57 15.2915C146.88 15.5695 147.044 15.9293 147.044 16.3546C147.044 16.8125 146.897 17.1887 146.586 17.4994C146.275 17.8265 145.883 17.9737 145.376 17.9737ZM144.067 30.8938V19.8054H146.668V30.8938H144.067Z" fill="#4EAA60"/>
<path d="M150.07 30.8938V15.4878H152.67V30.8938H150.07Z" fill="#4EAA60"/>
<path d="M156.072 30.8938V15.4878H158.672V30.8938H156.072Z" fill="#4EAA60"/>
<path d="M163.382 17.9737C162.892 17.9737 162.499 17.8265 162.188 17.5157C161.878 17.205 161.714 16.8452 161.714 16.42C161.714 15.9784 161.878 15.6023 162.188 15.3079C162.499 15.0135 162.892 14.8663 163.382 14.8663C163.873 14.8663 164.265 15.0135 164.576 15.2915C164.887 15.5695 165.05 15.9293 165.05 16.3546C165.05 16.8125 164.903 17.1887 164.592 17.4994C164.282 17.8265 163.873 17.9737 163.382 17.9737ZM162.074 30.8938V19.8054H164.674V30.8938H162.074Z" fill="#4EAA60"/>
<path d="M171.412 31.0246C170.578 31.0246 169.859 30.8774 169.237 30.5994C168.616 30.3214 168.141 29.9289 167.798 29.4219C167.454 28.9149 167.291 28.3425 167.291 27.7047C167.291 27.0832 167.438 26.5271 167.732 26.0201C168.027 25.5295 168.517 25.1206 169.188 24.8426C169.859 24.5482 170.758 24.401 171.887 24.401H175.108V26.1183H172.083C171.2 26.1183 170.595 26.2655 170.3 26.5435C169.989 26.8215 169.842 27.1813 169.842 27.5902C169.842 28.0645 170.022 28.4406 170.398 28.7186C170.774 28.9967 171.298 29.1275 171.952 29.1275C172.59 29.1275 173.162 28.9803 173.669 28.6859C174.176 28.3915 174.536 27.9663 174.765 27.3939L175.206 28.9476C174.961 29.6018 174.503 30.1088 173.865 30.4686C173.211 30.8447 172.394 31.0246 171.412 31.0246ZM174.896 30.8938V28.6532L174.749 28.1789V24.2538C174.749 23.4852 174.52 22.8964 174.062 22.4712C173.604 22.046 172.917 21.8334 171.985 21.8334C171.363 21.8334 170.742 21.9315 170.153 22.1277C169.548 22.324 169.041 22.5857 168.632 22.9455L167.618 21.0647C168.207 20.6068 168.926 20.2633 169.744 20.0344C170.562 19.8054 171.429 19.6909 172.312 19.6909C173.914 19.6909 175.157 20.0671 176.041 20.8357C176.924 21.6044 177.365 22.7983 177.365 24.401V30.8938H174.896Z" fill="#4EAA60"/>
<path d="M180.669 30.8938V19.8054H183.138V22.8637L182.844 21.9642C183.171 21.2119 183.694 20.6558 184.414 20.2633C185.134 19.8708 186.017 19.6746 187.08 19.6746V22.1441C186.965 22.1114 186.867 22.095 186.769 22.095C186.671 22.095 186.573 22.0787 186.475 22.0787C185.493 22.0787 184.708 22.3731 184.136 22.9455C183.547 23.5179 183.269 24.3683 183.269 25.5131V30.8938H180.669Z" fill="#4EAA60"/>
<path d="M193.867 31.0246C192.804 31.0246 191.839 30.7793 190.989 30.305C190.138 29.8307 189.468 29.1602 188.993 28.3261C188.503 27.4757 188.274 26.4781 188.274 25.3332C188.274 24.1884 188.519 23.1908 188.993 22.3404C189.484 21.4899 190.138 20.8357 190.989 20.3615C191.839 19.8872 192.804 19.6582 193.867 19.6582C194.799 19.6582 195.617 19.8545 196.353 20.2633C197.089 20.6722 197.661 21.2937 198.103 22.1277C198.528 22.9618 198.741 24.0249 198.741 25.3169C198.741 26.6089 198.528 27.6719 198.119 28.506C197.71 29.3401 197.138 29.9616 196.402 30.3868C195.666 30.8284 194.816 31.0246 193.867 31.0246ZM194.178 28.8168C194.799 28.8168 195.355 28.6859 195.846 28.4079C196.337 28.1299 196.729 27.7374 197.023 27.1977C197.318 26.6743 197.465 26.0528 197.465 25.3496C197.465 24.63 197.318 24.0085 197.023 23.4852C196.729 22.9618 196.337 22.5693 195.846 22.2913C195.355 22.0133 194.799 21.8824 194.178 21.8824C193.556 21.8824 193 22.0133 192.51 22.2913C192.019 22.5693 191.626 22.9618 191.332 23.4852C191.038 24.0085 190.891 24.63 190.891 25.3496C190.891 26.0528 191.038 26.6743 191.332 27.1977C191.626 27.721 192.019 28.1299 192.51 28.4079C193 28.6696 193.556 28.8168 194.178 28.8168ZM197.547 30.8938V28.2771L197.645 25.3332L197.432 22.3894V15.4878H200V30.8938H197.547Z" fill="#4EAA60"/>
<defs>
<linearGradient id="paint0_linear_1_4" x1="0" y1="24.8159" x2="24.864" y2="24.8159" gradientUnits="userSpaceOnUse">
<stop stop-color="#9CE092"/>
<stop offset="1" stop-color="#4EAA60"/>
</linearGradient>
<linearGradient id="paint1_linear_1_4" x1="19.4209" y1="15.3159" x2="31.9551" y2="37.0258" gradientUnits="userSpaceOnUse">
<stop stop-color="#003E2D"/>
<stop offset="1" stop-color="#001B2D"/>
</linearGradient>
</defs>
</svg>
