<svg width="120" height="30" viewBox="0 0 120 30" fill="none" xmlns="http://www.w3.org/2000/svg">
<path d="M0 22.3927L5.65214 0L9.48892 14.5327L11.1963 7.30068H14.9154L9.50854 29.7817L5.67176 14.935L3.94472 22.3927H0Z" fill="url(#paint0_linear_9_15)"/>
<path d="M14.9154 7.30078L18.8699 22.3928H14.9154L13.0902 14.886L14.9154 7.30078Z" fill="url(#paint1_linear_9_15)"/>
<path d="M30.3704 11.9321C30.9003 11.9321 31.3713 12.0303 31.7737 12.2363C32.176 12.4424 32.49 12.7466 32.7157 13.1685C32.9414 13.5807 33.0591 14.1106 33.0591 14.7386V18.5361H32.176V14.8171C32.176 14.1302 31.9994 13.6101 31.6559 13.2568C31.3125 12.9036 30.8316 12.727 30.2036 12.727C29.7424 12.727 29.3303 12.8251 28.9868 13.0115C28.6434 13.198 28.3784 13.4727 28.192 13.8162C28.0056 14.1694 27.9074 14.5914 27.9074 15.0918V18.5263H27.0243V11.991H27.8682V13.7867L27.7308 13.4531C27.9369 12.9821 28.2705 12.6092 28.7317 12.3345C29.1929 12.0695 29.7424 11.9321 30.3704 11.9321Z" fill="#4EAA60"/>
<path d="M35.895 10.5485C35.7086 10.5485 35.5614 10.4896 35.4338 10.3621C35.3063 10.2345 35.2474 10.0873 35.2474 9.91068C35.2474 9.73405 35.3063 9.58686 35.4338 9.46911C35.5614 9.35136 35.7086 9.29248 35.895 9.29248C36.0815 9.29248 36.2286 9.35136 36.3562 9.46911C36.4838 9.58686 36.5427 9.73405 36.5427 9.90087C36.5427 10.0873 36.4838 10.2345 36.366 10.3621C36.2483 10.4896 36.0913 10.5485 35.895 10.5485ZM35.4534 18.5361V12.0008H36.3366V18.5361H35.4534Z" fill="#4EAA60"/>
<path d="M41.5177 18.595C40.8701 18.595 40.2911 18.4478 39.7808 18.1632C39.2706 17.8786 38.8683 17.4861 38.5837 16.9759C38.2893 16.4754 38.1519 15.8965 38.1519 15.2488C38.1519 14.5914 38.2991 14.0124 38.5837 13.5218C38.8781 13.0213 39.2706 12.6288 39.7808 12.3541C40.2911 12.0695 40.8701 11.9321 41.5177 11.9321C42.077 11.9321 42.5775 12.0401 43.0289 12.2559C43.4802 12.4718 43.8335 12.7957 44.0886 13.2274L43.4312 13.6788C43.2055 13.3452 42.9307 13.0998 42.5971 12.9428C42.2635 12.7858 41.9004 12.7073 41.5177 12.7073C41.0565 12.7073 40.6346 12.8153 40.2617 13.0213C39.8888 13.2372 39.5944 13.5316 39.3785 13.9143C39.1626 14.297 39.0547 14.7484 39.0547 15.2586C39.0547 15.7689 39.1626 16.2203 39.3785 16.603C39.5944 16.9857 39.8888 17.2801 40.2617 17.496C40.6346 17.7118 41.0565 17.81 41.5177 17.81C41.9102 17.81 42.2733 17.7315 42.5971 17.5745C42.9307 17.4175 43.2055 17.1721 43.4312 16.8483L44.0886 17.2997C43.8335 17.7216 43.4802 18.0455 43.0289 18.2613C42.5775 18.487 42.0672 18.595 41.5177 18.595Z" fill="#4EAA60"/>
<path d="M48.367 18.595C47.739 18.595 47.1698 18.4478 46.6694 18.1632C46.1689 17.8786 45.7666 17.4861 45.4821 16.9759C45.1877 16.4754 45.0503 15.8965 45.0503 15.2488C45.0503 14.5914 45.1975 14.0124 45.4821 13.5218C45.7764 13.0213 46.1689 12.6288 46.6694 12.3541C47.1698 12.0695 47.739 11.9321 48.3768 11.9321C49.0245 11.9321 49.6034 12.0695 50.1039 12.3541C50.6043 12.6386 50.9968 13.0312 51.2912 13.5218C51.5758 14.0222 51.723 14.6012 51.723 15.2488C51.723 15.8965 51.5758 16.4754 51.2912 16.9759C51.0066 17.4763 50.6043 17.8688 50.1039 18.1632C49.574 18.4478 49.0048 18.595 48.367 18.595ZM48.367 17.81C48.838 17.81 49.26 17.702 49.623 17.496C49.9861 17.2801 50.2805 16.9857 50.4865 16.603C50.7024 16.2203 50.8006 15.7689 50.8006 15.2685C50.8006 14.7582 50.6926 14.3068 50.4865 13.9241C50.2707 13.5414 49.9861 13.247 49.623 13.0312C49.26 12.8153 48.838 12.7171 48.3768 12.7171C47.9156 12.7171 47.4937 12.8251 47.1306 13.0312C46.7675 13.247 46.4731 13.5414 46.2573 13.9241C46.0414 14.3068 45.9334 14.7582 45.9334 15.2685C45.9334 15.7787 46.0414 16.2203 46.2573 16.603C46.4731 16.9857 46.7675 17.2899 47.1306 17.496C47.4937 17.702 47.9058 17.81 48.367 17.81Z" fill="#4EAA60"/>
<path d="M53.5089 18.5361V9.29248H54.392V18.5361H53.5089Z" fill="#4EAA60"/>
<path d="M58.6998 18.5949C58.2092 18.5949 57.7872 18.5164 57.4242 18.3496C57.0611 18.1828 56.7863 17.9669 56.5999 17.6725C56.4134 17.388 56.3153 17.0543 56.3153 16.6814C56.3153 16.338 56.3938 16.0338 56.5606 15.7492C56.7176 15.4745 56.9924 15.2488 57.3555 15.0722C57.7283 14.9053 58.219 14.817 58.847 14.817H61.1039V15.4745H58.8764C58.2484 15.4745 57.8068 15.5824 57.5615 15.8081C57.3162 16.0338 57.1985 16.3086 57.1985 16.6422C57.1985 17.0151 57.3456 17.3193 57.6302 17.5352C57.9246 17.7608 58.3269 17.8688 58.847 17.8688C59.3475 17.8688 59.7792 17.751 60.1325 17.5253C60.4955 17.2997 60.7605 16.966 60.9273 16.5343L61.1236 17.1426C60.9567 17.5744 60.6722 17.9179 60.26 18.173C59.8381 18.4674 59.3278 18.5949 58.6998 18.5949ZM60.9567 18.5361V17.0936L60.9175 16.8581V14.4441C60.9175 13.8848 60.7605 13.4629 60.4465 13.1587C60.1325 12.8643 59.6713 12.7073 59.0629 12.7073C58.6409 12.7073 58.2386 12.776 57.8559 12.9232C57.4732 13.0605 57.1494 13.247 56.8845 13.4825L56.4821 12.825C56.8158 12.5405 57.2083 12.3246 57.6793 12.1676C58.1405 12.0106 58.6311 11.9419 59.1512 11.9419C59.9951 11.9419 60.6525 12.148 61.1137 12.5699C61.5749 12.9919 61.8006 13.6297 61.8006 14.4834V18.5459H60.9567V18.5361Z" fill="#4EAA60"/>
<path d="M65.9612 18.595C65.4215 18.595 64.9113 18.5165 64.4304 18.3693C63.9496 18.2123 63.5669 18.0258 63.302 17.7903L63.7043 17.0936C63.9692 17.2899 64.3127 17.4665 64.7248 17.6137C65.137 17.7609 65.5785 17.8296 66.0299 17.8296C66.6481 17.8296 67.0995 17.7315 67.3743 17.5352C67.649 17.3389 67.7864 17.0838 67.7864 16.76C67.7864 16.5147 67.7079 16.3282 67.5607 16.1909C67.4037 16.0535 67.2074 15.9455 66.9523 15.8769C66.707 15.8082 66.4224 15.7493 66.1182 15.7002C65.814 15.6512 65.5098 15.5923 65.2057 15.5236C64.9015 15.4549 64.6267 15.3568 64.3814 15.2292C64.1361 15.1016 63.93 14.925 63.773 14.6993C63.616 14.4736 63.5473 14.1792 63.5473 13.8064C63.5473 13.4531 63.6454 13.1293 63.8417 12.8447C64.0379 12.5601 64.3323 12.3443 64.715 12.1774C65.0977 12.0106 65.5687 11.9321 66.1281 11.9321C66.55 11.9321 66.9719 11.991 67.3939 12.0989C67.8158 12.2069 68.1691 12.3541 68.4439 12.5405L68.0612 13.247C67.7668 13.0508 67.4626 12.9036 67.1289 12.8153C66.7953 12.727 66.4617 12.6877 66.1281 12.6877C65.5393 12.6877 65.1075 12.7858 64.823 12.9919C64.5482 13.198 64.401 13.4531 64.401 13.7671C64.401 14.0124 64.4795 14.2087 64.6267 14.3559C64.7837 14.4933 64.98 14.611 65.2351 14.6895C65.4902 14.768 65.765 14.8367 66.0692 14.8858C66.3734 14.9348 66.6776 14.9937 66.9818 15.0624C67.286 15.1311 67.5607 15.2292 67.8158 15.347C68.071 15.4647 68.277 15.6413 68.4242 15.8572C68.5812 16.0731 68.6499 16.3675 68.6499 16.7207C68.6499 17.1034 68.542 17.4371 68.3359 17.7118C68.12 17.9866 67.8158 18.2025 67.4135 18.3595C67.021 18.5165 66.5304 18.595 65.9612 18.595Z" fill="#4EAA60"/>
<path d="M81.7303 11.8042C82.2602 11.8042 82.7312 11.9121 83.1433 12.1182C83.5555 12.3243 83.8793 12.6481 84.105 13.07C84.3405 13.5018 84.4582 14.0513 84.4582 14.7186V18.5259H82.898V14.9148C82.898 14.3261 82.7704 13.8845 82.5153 13.5901C82.2602 13.2957 81.8873 13.1584 81.4065 13.1584C81.063 13.1584 80.7687 13.2369 80.5037 13.384C80.2388 13.5312 80.0425 13.7569 79.8953 14.0415C79.7481 14.3359 79.6794 14.699 79.6794 15.1503V18.5259H78.1192V14.9148C78.1192 14.3261 77.9916 13.8845 77.7365 13.5901C77.4814 13.2957 77.1085 13.1584 76.6277 13.1584C76.2842 13.1584 75.9898 13.2369 75.7249 13.384C75.46 13.5312 75.2637 13.7569 75.1165 14.0415C74.9693 14.3359 74.9006 14.699 74.9006 15.1503V18.5259H73.3404V11.8729H74.8221V13.6392L74.5572 13.1191C74.7829 12.6873 75.1067 12.3635 75.5385 12.1378C75.9702 11.9121 76.451 11.8042 77.0006 11.8042C77.6188 11.8042 78.1683 11.9612 78.6295 12.2654C79.0907 12.5696 79.3949 13.0406 79.5421 13.6588L78.9337 13.4429C79.1495 12.9425 79.5028 12.55 80.0033 12.2458C80.4939 11.9612 81.0728 11.8042 81.7303 11.8042Z" fill="#4EAA60"/>
<path d="M87.2254 10.7839C86.9311 10.7839 86.6955 10.6955 86.5091 10.5091C86.3227 10.3227 86.2245 10.1068 86.2245 9.85164C86.2245 9.5867 86.3227 9.36101 86.5091 9.18438C86.6955 9.00775 86.9311 8.91943 87.2254 8.91943C87.5198 8.91943 87.7553 9.00775 87.9418 9.17456C88.1282 9.34138 88.2263 9.55726 88.2263 9.81239C88.2263 10.0871 88.138 10.3128 87.9516 10.4993C87.7651 10.6955 87.5296 10.7839 87.2254 10.7839ZM86.4404 18.5359V11.8829H88.0006V18.5359H86.4404Z" fill="#4EAA60"/>
<path d="M90.0417 18.5361V9.29248H91.6019V18.5361H90.0417Z" fill="#4EAA60"/>
<path d="M93.643 18.5361V9.29248H95.2032V18.5361H93.643Z" fill="#4EAA60"/>
<path d="M98.0293 10.7839C97.7349 10.7839 97.4994 10.6955 97.3129 10.5091C97.1265 10.3227 97.0284 10.1068 97.0284 9.85164C97.0284 9.5867 97.1265 9.36101 97.3129 9.18438C97.4994 9.00775 97.7349 8.91943 98.0293 8.91943C98.3236 8.91943 98.5592 9.00775 98.7456 9.17456C98.932 9.34138 99.0302 9.55726 99.0302 9.81239C99.0302 10.0871 98.9419 10.3128 98.7554 10.4993C98.569 10.6955 98.3236 10.7839 98.0293 10.7839ZM97.2442 18.5359V11.8829H98.8045V18.5359H97.2442Z" fill="#4EAA60"/>
<path d="M102.847 18.6147C102.347 18.6147 101.915 18.5264 101.542 18.3596C101.169 18.1927 100.885 17.9572 100.679 17.653C100.473 17.3488 100.375 17.0054 100.375 16.6227C100.375 16.2498 100.463 15.9162 100.639 15.612C100.816 15.3176 101.11 15.0723 101.513 14.9055C101.915 14.7288 102.455 14.6405 103.132 14.6405H105.065V15.6709H103.25C102.72 15.6709 102.357 15.7592 102.18 15.926C101.994 16.0928 101.905 16.3087 101.905 16.554C101.905 16.8386 102.013 17.0643 102.239 17.2311C102.465 17.3979 102.779 17.4764 103.171 17.4764C103.554 17.4764 103.897 17.3881 104.201 17.2115C104.506 17.0348 104.722 16.7797 104.859 16.4363L105.124 17.3685C104.977 17.761 104.702 18.0652 104.319 18.281C103.927 18.5067 103.436 18.6147 102.847 18.6147ZM104.937 18.5362V17.1918L104.849 16.9073V14.5522C104.849 14.091 104.712 13.7377 104.437 13.4826C104.162 13.2275 103.75 13.0999 103.191 13.0999C102.818 13.0999 102.445 13.1588 102.092 13.2766C101.729 13.3943 101.424 13.5513 101.179 13.7672L100.571 12.6387C100.924 12.364 101.356 12.1579 101.846 12.0205C102.337 11.8831 102.857 11.8145 103.387 11.8145C104.349 11.8145 105.094 12.0401 105.624 12.5013C106.154 12.9625 106.419 13.6789 106.419 14.6405V18.5362H104.937Z" fill="#4EAA60"/>
<path d="M108.401 18.5357V11.8827H109.883V13.7177L109.706 13.178C109.903 12.7266 110.217 12.393 110.648 12.1575C111.08 11.922 111.61 11.8042 112.248 11.8042V13.2859C112.179 13.2663 112.12 13.2565 112.061 13.2565C112.003 13.2565 111.944 13.2467 111.885 13.2467C111.296 13.2467 110.825 13.4233 110.482 13.7667C110.128 14.1102 109.962 14.6205 109.962 15.3073V18.5357H108.401Z" fill="#4EAA60"/>
<path d="M116.32 18.6146C115.682 18.6146 115.103 18.4674 114.593 18.1828C114.083 17.8983 113.681 17.4959 113.396 16.9955C113.102 16.4852 112.964 15.8866 112.964 15.1997C112.964 14.5129 113.111 13.9143 113.396 13.404C113.69 12.8938 114.083 12.5012 114.593 12.2167C115.103 11.9321 115.682 11.7947 116.32 11.7947C116.88 11.7947 117.37 11.9125 117.812 12.1578C118.253 12.4031 118.597 12.776 118.862 13.2765C119.117 13.7769 119.244 14.4147 119.244 15.1899C119.244 15.9651 119.117 16.603 118.872 17.1034C118.626 17.6039 118.283 17.9768 117.841 18.2319C117.4 18.4968 116.889 18.6146 116.32 18.6146ZM116.507 17.2899C116.88 17.2899 117.213 17.2114 117.508 17.0445C117.802 16.8777 118.037 16.6422 118.214 16.3184C118.391 16.0044 118.479 15.6315 118.479 15.2096C118.479 14.7778 118.391 14.4049 118.214 14.0909C118.037 13.7769 117.802 13.5414 117.508 13.3746C117.213 13.2078 116.88 13.1293 116.507 13.1293C116.134 13.1293 115.8 13.2078 115.506 13.3746C115.211 13.5414 114.976 13.7769 114.799 14.0909C114.623 14.4049 114.534 14.7778 114.534 15.2096C114.534 15.6315 114.623 16.0044 114.799 16.3184C114.976 16.6324 115.211 16.8777 115.506 17.0445C115.8 17.2015 116.134 17.2899 116.507 17.2899ZM118.528 18.5361V16.966L118.587 15.1997L118.459 13.4335V9.29248H120V18.5361H118.528Z" fill="#4EAA60"/>
<defs>
<linearGradient id="paint0_linear_9_15" x1="0" y1="14.8895" x2="14.9184" y2="14.8895" gradientUnits="userSpaceOnUse">
<stop stop-color="#9CE092"/>
<stop offset="1" stop-color="#31A494"/>
</linearGradient>
<linearGradient id="paint1_linear_9_15" x1="11.6525" y1="9.18967" x2="19.1731" y2="22.2156" gradientUnits="userSpaceOnUse">
<stop stop-color="white"/>
<stop offset="1" stop-color="#F2F2F2"/>
</linearGradient>
</defs>
</svg>
