<svg width="305" height="76" viewBox="0 0 305 76" fill="none" xmlns="http://www.w3.org/2000/svg">
<path d="M139.647 55.3132V40.888H123.486V55.3132H117.822V22.5701H123.486V36.3317H139.647V22.5683H145.365V55.3132H139.647ZM173.545 55.3187L172.412 51.3797C171.173 53.428 167.517 55.6895 162.06 55.6895C156.395 55.6895 151.864 53.1815 151.864 47.6538C151.864 42.8455 155.313 40.6415 162.831 39.9296L171.125 39.1103C170.97 35.3029 169.578 33.0989 164.267 33.0989C159.374 33.0989 158.038 35.0453 158.038 38.3188L152.672 38.3726C152.672 32.9469 154.938 28.7558 164.208 28.7558C174.97 28.7558 176.521 33.364 176.521 40.419V55.3095L173.545 55.3187ZM171.123 43.244L163.663 44.0633C159.082 44.5786 157.535 45.5481 157.535 47.5964C157.535 50.0006 159.596 51.3816 163.458 51.3816C168.297 51.3816 171.133 48.6196 171.133 44.0652L171.123 43.244ZM194.865 33.5178C189.355 33.5178 188.263 36.5504 188.263 40.7823V55.3132H182.763V29.1173H185.701L187 32.7504C187.825 31.0117 190.346 28.7595 195.496 28.7595H196.374V33.6217C195.841 33.6217 195.329 33.5178 194.865 33.5178ZM221.338 55.315L220.099 51.578C219.173 53.3705 216.238 55.6746 209.997 55.6746C201.294 55.6746 198.716 49.3815 198.716 42.2171C198.716 35.0527 201.189 28.7614 209.942 28.7614C215.145 28.7614 217.772 30.6039 218.905 32.3445V19.1409H224.314V55.315H221.338ZM211.602 33.3603C205.579 33.3603 204.343 36.9416 204.343 42.2115C204.343 47.4796 205.581 51.1647 211.554 51.1647C217.681 51.1647 218.968 47.5834 218.968 42.2115C218.968 37.151 217.89 33.3658 211.603 33.3658L211.602 33.3603ZM249.923 55.315V40.6303C249.923 35.7181 249.096 33.3658 243.481 33.3658C237.922 33.3658 236.734 35.6681 236.734 40.6303L236.634 55.315H231.227V19.1409H236.636V32.3834C237.663 30.5038 239.98 28.7521 245.03 28.7521C253.631 28.7521 255.381 33.6142 255.381 41.1345V55.3057L249.923 55.315ZM282.473 55.3187L281.339 51.3797C280.101 53.428 276.445 55.6895 270.979 55.6895C265.311 55.6895 260.781 53.1815 260.781 47.6538C260.781 42.8455 264.232 40.6415 271.751 39.9296L280.04 39.1103C279.896 35.3029 278.506 33.0989 273.184 33.0989C268.295 33.0989 266.953 35.0453 266.953 38.3188L261.586 38.3726C261.586 32.9469 263.855 28.7558 273.123 28.7558C283.887 28.7558 285.437 33.364 285.437 40.419V55.3095L282.473 55.3187ZM280.053 43.244L272.59 44.0633C268.01 44.5786 266.463 45.5481 266.463 47.5964C266.463 50.0006 268.524 51.3816 272.385 51.3816C277.225 51.3816 280.06 48.6196 280.06 44.0652L280.053 43.244ZM298.079 33.5178V47.791C298.079 50.249 299.109 51.3741 304.826 51.1202V55.5115C296.124 56.0231 292.467 53.9748 292.467 47.7817V33.5178H288.704V30.2443L292.464 29.1191V22.5701H297.922V29.1191H304.823V33.5104L298.079 33.5178Z" fill="#001B2D"/>
<path d="M93.8698 63.3747V58.887C93.8698 58.0528 92.4704 57.2576 89.9584 56.5403L90.0194 50.9552C90.0194 42.3505 87.3575 33.9553 82.3925 26.904C77.4099 19.8386 70.3867 14.4753 62.2699 11.5371L62.0906 10.4175C61.9976 9.81779 61.7359 9.25708 61.3364 8.80114C60.9349 8.34345 60.4127 8.0087 59.8299 7.83539C52.0276 5.56057 43.7406 5.56057 35.9382 7.83539C35.3523 8.00778 34.8291 8.34144 34.4262 8.79929C34.0251 9.25529 33.7607 9.8151 33.6683 10.4157L33.4964 11.4593C25.3302 14.3694 18.2553 19.7302 13.2333 26.8131C8.23571 33.8654 5.54902 42.3017 5.54545 50.9533V56.5625C3.06848 57.278 1.68766 58.064 1.68766 58.8926V63.3803C1.64764 63.6436 1.70482 63.9125 1.84848 64.1366C3.08404 63.2207 4.49998 62.5793 6.00203 62.2551C9.83209 61.3283 13.7268 60.6795 17.653 60.3162C18.7521 60.1929 19.8647 60.3037 20.9181 60.6413C21.9715 60.979 22.942 61.5358 23.766 62.2755C26.8102 65.0363 30.769 66.5638 34.8735 66.5611H60.6858C64.7903 66.5635 68.749 65.0346 71.7915 62.2718C72.614 61.5282 73.5839 60.9673 74.6377 60.6259C75.6915 60.2844 76.8053 60.17 77.9062 60.2902C81.8306 60.6535 85.7253 61.2986 89.5554 62.2217C90.9788 62.492 92.324 63.0778 93.4927 63.9364C93.5574 64.0012 93.6368 64.0587 93.6923 64.1199C93.8376 63.9004 93.9005 63.6363 93.8698 63.3747Z" fill="#FFF100"/>
<path d="M23.827 53.9303C23.7922 52.8969 23.7737 51.8631 23.7715 50.8291C23.7845 35.2287 27.4537 21.2373 33.4982 11.4667C25.3323 14.3763 18.2575 19.7364 13.2352 26.8187C8.238 33.8692 5.55072 42.3034 5.54546 50.9533V56.5625C11.5487 55.1396 17.667 54.2587 23.827 53.9303Z" fill="url(#paint0_linear_102_24)"/>
<path d="M90.0157 50.9533C90.0239 41.1996 86.6116 31.7535 80.3758 24.2681C83.0817 32.8559 84.4302 41.8156 84.3723 50.8217C84.3723 52.3417 84.3316 53.8432 84.2613 55.3354C86.176 55.6307 88.073 56.0317 89.9436 56.5366L90.0157 50.9533Z" fill="url(#paint1_linear_102_24)"/>
<path d="M89.5554 62.2384C85.7235 61.3116 81.8287 60.6628 77.9044 60.2995C76.8044 60.1774 75.6911 60.2897 74.6374 60.6289C73.5836 60.9682 72.6132 61.5267 71.7896 62.2681C68.7464 65.0306 64.787 66.5589 60.6821 66.5556H34.8809C30.7783 66.5572 26.8215 65.0298 23.7789 62.2699C22.9569 61.5253 21.9872 60.9635 20.9333 60.6213C19.8794 60.2792 18.7653 60.1645 17.6641 60.2847C13.7379 60.648 9.84503 61.2968 6.01312 62.2217C4.51308 62.5503 3.09862 63.1913 1.86143 64.1032C3.82082 67.0839 23.6403 70.211 47.7889 70.211C71.9393 70.211 91.7495 67.0728 93.7126 64.105C93.6442 64.0457 93.5685 63.9883 93.5112 63.9234C92.3284 63.0836 90.9793 62.5089 89.5554 62.2384Z" fill="url(#paint2_radial_102_24)"/>
<path d="M47.7759 19.304L37.8939 36.0277L47.7759 42.1262V19.304Z" fill="#0A0A0A"/>
<path d="M47.7796 19.3096V42.1207L57.6598 36.0333L47.7796 19.3096ZM47.7796 45.4332V53.3872C47.9645 53.124 57.6598 39.3365 57.6598 39.3309L47.7796 45.4332Z" fill="#4B4D4D"/>
<path d="M47.7796 45.4369L37.8976 39.342L47.7796 53.3928V45.4332V45.4369Z" fill="#0A0A0A"/>
<defs>
<linearGradient id="paint0_linear_102_24" x1="19.5218" y1="56.5625" x2="19.5218" y2="11.4667" gradientUnits="userSpaceOnUse">
<stop stop-color="#EDCF00"/>
<stop offset="0.33" stop-color="#F0D500"/>
<stop offset="0.77" stop-color="#F9E500"/>
<stop offset="1" stop-color="#FFF100"/>
</linearGradient>
<linearGradient id="paint1_linear_102_24" x1="85.1948" y1="56.8925" x2="85.1948" y2="24.2681" gradientUnits="userSpaceOnUse">
<stop stop-color="#EDCF00"/>
<stop offset="0.59" stop-color="#F7E100"/>
<stop offset="1" stop-color="#FFF100"/>
</linearGradient>
<radialGradient id="paint2_radial_102_24" cx="0" cy="0" r="1" gradientUnits="userSpaceOnUse" gradientTransform="translate(6.84125 87.3722) scale(34.2705 34.1325)">
<stop stop-color="#FFF100"/>
<stop offset="0.23" stop-color="#F9E500"/>
<stop offset="0.67" stop-color="#F0D500"/>
<stop offset="1" stop-color="#EDCF00"/>
</radialGradient>
</defs>
</svg>
