<svg version="1.1" id="Layer_1" xmlns="http://www.w3.org/2000/svg" x="0" y="0" viewBox="0 0 40.1 40.1" style="enable-background:new 0 0 40.1 40.1" xml:space="preserve"><style>.st0{display:none}.st1,.st2{display:inline}.st2{fill-rule:evenodd;clip-rule:evenodd}.st3{display:none;fill:#010101}.st4{display:inline}.st4,.st7{fill:#010101}.st8,.st9{stroke:#000;stroke-miterlimit:10}.st9{fill:none;stroke-width:3;stroke-linecap:round;stroke-linejoin:round}</style><path class="st8" d="M31 39.6c-.5 0-.9-.4-.9-.9V25.6c0-4.7-2.4-4.7-3.3-4.7-2.5 0-3.8 1.6-3.8 4.7v13.1c0 .5-.4.9-.9.9h-7.4c-.5 0-.9-.4-.9-.9V13.8c0-.5.4-.9.9-.9h7.4c.5 0 .9.4.9.9v.9l.4-.4c1.7-1.4 3.8-2.2 6.2-2.2 2.9 0 5.4.9 7.1 2.7 1.8 1.9 2.8 4.7 2.8 8v15.8c0 .5-.4.9-.9.9l-7.6.1zm-4.2-20.4c1.9 0 5.1.8 5.1 6.4v12.2h5.9V22.9c0-5.7-3-9-8.2-9-4.7 0-6.7 3.5-6.7 3.7-.2.3-.4.4-.8.4h-.2c-.4-.1-.6-.4-.6-.8v-2.5h-5.7v23.2h5.7V25.6c0-4 2-6.4 5.5-6.4zM2.1 39.6c-.5 0-.9-.4-.9-.9V13.8c0-.5.4-.9.9-.9h7.7c.5 0 .9.4.9.9v24.9c0 .5-.4.9-.9.9H2.1zm.9-1.8h6V14.7H3v23.1zM5.9 11.4C2.9 11.4.5 9 .5 6 .5 3 2.9.5 5.9.5c3 0 5.4 2.4 5.4 5.5 0 3-2.4 5.4-5.4 5.4zm0-9.2c-2 0-3.7 1.7-3.7 3.7 0 2.1 1.7 3.7 3.7 3.7C8 9.7 9.6 8 9.6 6c0-2.1-1.6-3.8-3.7-3.8z"/><g><path class="st9" d="M81.5 22.1v12.2c0 1.1-.4 2.1-1.2 2.9-.8.8-1.8 1.2-2.9 1.2H55.1c-1.1 0-2.1-.4-2.9-1.2-.8-.8-1.2-1.8-1.2-2.9V11.9c0-1.1.4-2.1 1.2-2.9.8-.7 1.8-1.1 2.9-1.1h12.2M75.4 1.8h12.2V14M65.2 24.1 87.6 1.8"/></g><g><path d="M-10.4 14.7c0-2.5-.9-5-2.5-7 .5-2.3.4-4.6-.5-6.8-.2-.4-.5-.7-.9-.9-.6-.2-2.9-.6-7.6 2.4-2-.5-4.1-.8-6.2-.7-2.1 0-4.2.2-6.2.7-4.8-3.1-7.3-2.6-7.8-2.5-.4.1-.8.5-.9.9-.9 2.2-1 4.5-.5 6.8-1.7 2-2.5 4.5-2.5 7 0 9.6 5.5 12.5 10.5 13.5-.3.6-.4 1.3-.5 2V33c-4.6.4-5.6-2.3-5.7-2.6 0-.1 0-.1-.1-.2-.9-1.8-2.4-3.2-4.3-3.9-.8-.3-1.7.2-1.9 1-.3.8.2 1.7 1 1.9 1 .4 1.9 1.1 2.5 2.1.6 2 3.1 5.1 8.5 4.7v2.5c0 .8.7 1.5 1.5 1.5s1.5-.7 1.5-1.5v-8.1c.1-.9.5-1.7 1.1-2.4.4-.4.6-1 .4-1.6-.2-.6-.7-1-1.3-1C-38.1 24.8-43 23-43 14.5c-.1-2.1.7-4.1 2.2-5.6.4-.4.5-1.1.3-1.6-.5-1.5-.5-3.1-.1-4.6 1.9.4 3.6 1.2 5.1 2.4.4.3.9.3 1.3.2 1.9-.6 3.9-.9 5.9-.8 2-.1 4 .2 5.9.8.4.1.9.1 1.3-.2 1.5-1.1 3.1-1.9 4.9-2.4.4 1.5.4 3.1-.1 4.6-.2.5-.1 1.1.3 1.5 1.4 1.5 2.2 3.5 2.3 5.6 0 8.5-5.1 10.3-10.2 10.9-.6.1-1.1.5-1.3 1.1-.2.6.1 1.2.6 1.6.5.4 1.2 1.6 1.2 3.5v6.9c0 .8.7 1.5 1.5 1.5s1.5-.7 1.5-1.5v-6.9c0-1.2-.2-2.4-.7-3.5 4.4-.6 10.7-3.3 10.7-13.3z"/></g></svg>