<svg width="305" height="76" viewBox="0 0 305 76" fill="none" xmlns="http://www.w3.org/2000/svg">
<path d="M139.648 55.3132V40.888H123.486V55.3132H117.823V22.5701H123.486V36.3317H139.648V22.5683H145.365V55.3132H139.648ZM173.545 55.3187L172.412 51.3797C171.173 53.428 167.517 55.6895 162.06 55.6895C156.395 55.6895 151.864 53.1815 151.864 47.6538C151.864 42.8455 155.313 40.6415 162.831 39.9297L171.125 39.1103C170.97 35.3029 169.578 33.0989 164.268 33.0989C159.375 33.0989 158.038 35.0453 158.038 38.3188L152.672 38.3726C152.672 32.9469 154.938 28.7558 164.208 28.7558C174.97 28.7558 176.521 33.364 176.521 40.419V55.3095L173.545 55.3187ZM171.124 43.244L163.663 44.0633C159.083 44.5786 157.535 45.5481 157.535 47.5964C157.535 50.0006 159.596 51.3816 163.458 51.3816C168.297 51.3816 171.133 48.6196 171.133 44.0652L171.124 43.244ZM194.866 33.5178C189.355 33.5178 188.263 36.5504 188.263 40.7823V55.3132H182.763V29.1173H185.701L187 32.7504C187.825 31.0117 190.346 28.7595 195.496 28.7595H196.374V33.6217C195.842 33.6217 195.329 33.5178 194.866 33.5178ZM221.338 55.315L220.099 51.578C219.173 53.3705 216.238 55.6746 209.997 55.6746C201.295 55.6746 198.716 49.3815 198.716 42.2171C198.716 35.0527 201.189 28.7614 209.942 28.7614C215.145 28.7614 217.772 30.6039 218.905 32.3445V19.1409H224.314V55.315H221.338ZM211.602 33.3603C205.579 33.3603 204.343 36.9416 204.343 42.2115C204.343 47.4796 205.581 51.1647 211.554 51.1647C217.681 51.1647 218.968 47.5834 218.968 42.2115C218.968 37.151 217.89 33.3658 211.604 33.3658L211.602 33.3603ZM249.923 55.315V40.6303C249.923 35.7181 249.096 33.3658 243.481 33.3658C237.922 33.3658 236.734 35.6681 236.734 40.6303L236.634 55.315H231.227V19.1409H236.636V32.3834C237.663 30.5038 239.98 28.7521 245.03 28.7521C253.631 28.7521 255.381 33.6142 255.381 41.1345V55.3057L249.923 55.315ZM282.473 55.3187L281.339 51.3797C280.101 53.428 276.445 55.6895 270.979 55.6895C265.311 55.6895 260.781 53.1815 260.781 47.6538C260.781 42.8455 264.232 40.6415 271.751 39.9297L280.04 39.1103C279.896 35.3029 278.506 33.0989 273.184 33.0989C268.295 33.0989 266.953 35.0453 266.953 38.3188L261.587 38.3726C261.587 32.9469 263.855 28.7558 273.123 28.7558C283.887 28.7558 285.438 33.364 285.438 40.419V55.3095L282.473 55.3187ZM280.053 43.244L272.591 44.0633C268.01 44.5786 266.463 45.5481 266.463 47.5964C266.463 50.0006 268.524 51.3816 272.385 51.3816C277.225 51.3816 280.06 48.6196 280.06 44.0652L280.053 43.244ZM298.079 33.5178V47.791C298.079 50.249 299.109 51.3741 304.826 51.1202V55.5115C296.124 56.0231 292.467 53.9748 292.467 47.7817V33.5178H288.704V30.2443L292.464 29.1191V22.5701H297.922V29.1191H304.823V33.5104L298.079 33.5178Z" fill="white"/>
<path d="M93.8698 63.3748V58.8871C93.8698 58.053 92.4705 57.2578 89.9584 56.5404L90.0194 50.9553C90.0194 42.3506 87.3576 33.9554 82.3926 26.9041C77.41 19.8388 70.3868 14.4754 62.27 11.5373L62.0907 10.4177C61.9977 9.81791 61.736 9.2572 61.3365 8.80127C60.935 8.34357 60.4128 8.00882 59.83 7.83551C52.0276 5.56069 43.7407 5.56069 35.9383 7.83551C35.3524 8.0079 34.8292 8.34156 34.4263 8.79941C34.0251 9.25541 33.7608 9.81522 33.6684 10.4158L33.4965 11.4594C25.3302 14.3696 18.2554 19.7303 13.2334 26.8133C8.2358 33.8655 5.54911 42.3019 5.54554 50.9535V56.5626C3.06857 57.2781 1.68775 58.0641 1.68775 58.8927V63.3804C1.64772 63.6437 1.70491 63.9126 1.84857 64.1367C3.08412 63.2208 4.50006 62.5794 6.00211 62.2552C9.83217 61.3284 13.7269 60.6796 17.6531 60.3163C18.7522 60.193 19.8648 60.3038 20.9182 60.6415C21.9716 60.9791 22.942 61.536 23.7661 62.2756C26.8102 65.0364 30.7691 66.5639 34.8736 66.5613H60.6858C64.7904 66.5637 68.749 65.0347 71.7915 62.2719C72.6141 61.5284 73.584 60.9675 74.6378 60.626C75.6916 60.2845 76.8054 60.1701 77.9063 60.2903C81.8307 60.6537 85.7254 61.2987 89.5555 62.2219C90.9789 62.4921 92.3241 63.0779 93.4927 63.9365C93.5574 64.0014 93.6369 64.0588 93.6924 64.12C93.8377 63.9005 93.9006 63.6365 93.8698 63.3748Z" fill="#FFF100"/>
<path d="M23.8269 53.9304C23.7922 52.897 23.7737 51.8632 23.7715 50.8292C23.7844 35.2288 27.4537 21.2374 33.4982 11.4668C25.3322 14.3765 18.2574 19.7365 13.2351 26.8188C8.23796 33.8693 5.55067 42.3035 5.54541 50.9534V56.5626C11.5487 55.1397 17.667 54.2588 23.8269 53.9304Z" fill="url(#paint0_linear_135_448)"/>
<path d="M90.0156 50.9533C90.0238 41.1996 86.6115 31.7535 80.3757 24.2681C83.0816 32.8559 84.4301 41.8156 84.3722 50.8217C84.3722 52.3417 84.3315 53.8432 84.2612 55.3354C86.1759 55.6307 88.0729 56.0317 89.9435 56.5366L90.0156 50.9533Z" fill="url(#paint1_linear_135_448)"/>
<path d="M89.5553 62.2385C85.7234 61.3117 81.8286 60.6629 77.9043 60.2996C76.8043 60.1775 75.691 60.2898 74.6373 60.629C73.5835 60.9683 72.6131 61.5268 71.7895 62.2682C68.7463 65.0308 64.7869 66.5591 60.682 66.5557H34.8808C30.7782 66.5573 26.8214 65.0299 23.7788 62.27C22.9568 61.5254 21.9871 60.9636 20.9332 60.6215C19.8793 60.2793 18.7652 60.1646 17.664 60.2848C13.7378 60.6481 9.84493 61.2969 6.01303 62.2219C4.51298 62.5504 3.09852 63.1914 1.86133 64.1033C3.82072 67.084 23.6402 70.2111 47.7888 70.2111C71.9392 70.2111 91.7494 67.0729 93.7125 64.1052C93.6441 64.0459 93.5684 63.9884 93.5111 63.9235C92.3283 63.0837 90.9792 62.509 89.5553 62.2385Z" fill="url(#paint2_radial_135_448)"/>
<path d="M47.776 19.3041L37.894 36.0278L47.776 42.1263V19.3041Z" fill="#0A0A0A"/>
<path d="M47.7795 19.3096V42.1207L57.6597 36.0333L47.7795 19.3096ZM47.7795 45.4332V53.3872C47.9644 53.124 57.6597 39.3365 57.6597 39.3309L47.7795 45.4332Z" fill="#4B4D4D"/>
<path d="M47.7797 45.4369L37.8977 39.342L47.7797 53.3928V45.4332V45.4369Z" fill="#0A0A0A"/>
<defs>
<linearGradient id="paint0_linear_135_448" x1="19.5218" y1="56.5626" x2="19.5218" y2="11.4668" gradientUnits="userSpaceOnUse">
<stop stop-color="#EDCF00"/>
<stop offset="0.33" stop-color="#F0D500"/>
<stop offset="0.77" stop-color="#F9E500"/>
<stop offset="1" stop-color="#FFF100"/>
</linearGradient>
<linearGradient id="paint1_linear_135_448" x1="85.1947" y1="56.8925" x2="85.1947" y2="24.2681" gradientUnits="userSpaceOnUse">
<stop stop-color="#EDCF00"/>
<stop offset="0.59" stop-color="#F7E100"/>
<stop offset="1" stop-color="#FFF100"/>
</linearGradient>
<radialGradient id="paint2_radial_135_448" cx="0" cy="0" r="1" gradientUnits="userSpaceOnUse" gradientTransform="translate(6.84115 87.3723) scale(34.2705 34.1325)">
<stop stop-color="#FFF100"/>
<stop offset="0.23" stop-color="#F9E500"/>
<stop offset="0.67" stop-color="#F0D500"/>
<stop offset="1" stop-color="#EDCF00"/>
</radialGradient>
</defs>
</svg>
