<svg width="305" height="62" viewBox="0 0 305 62" fill="none" xmlns="http://www.w3.org/2000/svg">
<path d="M255.88 0.0256016V9.83122H234.806V61.4172H224.268V9.83122H202.755V0.0256016H255.88ZM258.249 55.5687C258.991 55.5687 259.641 55.8361 260.191 56.3707C260.748 56.9054 261.026 57.5457 261.034 58.2915C261.026 58.798 260.897 59.2623 260.64 59.6774C260.376 60.0996 260.041 60.4303 259.619 60.6695C259.205 60.9157 258.748 61.0423 258.249 61.0423C257.477 61.0423 256.821 60.775 256.271 60.2403C255.722 59.7056 255.45 59.0583 255.457 58.2915C255.45 57.5457 255.722 56.9054 256.271 56.3707C256.821 55.8361 257.477 55.5687 258.249 55.5687ZM49.3935 61.4172L10.5373 13.1224V61.3916H0V0H13.1716L62.261 60.9574L62.2618 9.83122L62.2574 0.0256016H115.383V9.83122H72.7991V25.6054H107.045V35.411H72.7991V51.6117H115.383V61.4172H49.3935ZM149.155 35.3172L156.061 43.9036L141.91 61.4897H128.081L149.155 35.3172ZM141.91 0.0512064L159.739 22.1936L177.513 0.119356L191.304 0.0980443L166.644 30.7682L191.343 61.4429H177.513L128.12 0.0512064H141.91ZM276.234 35.1797H280.903V53.1695C280.896 54.8229 280.539 56.237 279.84 57.4261C279.133 58.615 278.155 59.5225 276.898 60.1628C275.649 60.7959 274.185 61.1197 272.521 61.1197C271 61.1197 269.637 60.8453 268.423 60.3106C267.209 59.7759 266.246 58.9738 265.539 57.9185C264.824 56.8631 264.474 55.5475 264.474 53.9716H269.152C269.159 54.6611 269.316 55.259 269.615 55.7586C269.915 56.2581 270.329 56.638 270.858 56.9053C271.393 57.1727 272.007 57.3064 272.699 57.3064C273.45 57.3064 274.092 57.1516 274.613 56.835C275.134 56.5254 275.534 56.0611 275.813 55.442C276.084 54.8299 276.227 54.0701 276.234 53.1695V35.1797ZM300.116 42.2153C300.002 41.1248 299.502 40.2735 298.631 39.6684C297.753 39.0563 296.618 38.7538 295.225 38.7538C294.248 38.7538 293.405 38.9016 292.706 39.19C292.006 39.4855 291.463 39.8794 291.092 40.379C290.721 40.8785 290.535 41.4484 290.52 42.0887C290.52 42.6234 290.649 43.0877 290.899 43.4747C291.149 43.8686 291.484 44.1993 291.92 44.4667C292.348 44.741 292.826 44.9661 293.348 45.1491C293.876 45.332 294.405 45.4868 294.933 45.6134L297.367 46.2114C298.346 46.4366 299.296 46.7392 300.202 47.1261C301.109 47.506 301.93 47.9914 302.651 48.5754C303.372 49.1593 303.943 49.8629 304.364 50.686C304.786 51.5092 305 52.473 305 53.5846C305 55.0832 304.614 56.3988 303.836 57.5386C303.058 58.6712 301.937 59.5578 300.466 60.198C299.002 60.8312 297.232 61.1548 295.147 61.1548C293.134 61.1548 291.377 60.8453 289.899 60.2262C288.415 59.6141 287.257 58.7135 286.422 57.5315C285.587 56.3496 285.137 54.9073 285.073 53.2117H289.7C289.764 54.0982 290.05 54.837 290.535 55.435C291.027 56.0259 291.67 56.4622 292.456 56.7576C293.248 57.0461 294.133 57.1938 295.112 57.1938C296.133 57.1938 297.032 57.039 297.81 56.7365C298.581 56.434 299.188 56.0119 299.624 55.4632C300.067 54.9214 300.288 54.2812 300.295 53.5495C300.288 52.8811 300.087 52.3252 299.702 51.889C299.309 51.4529 298.767 51.087 298.074 50.7916C297.375 50.4961 296.561 50.2287 295.632 49.9965L292.677 49.2508C290.542 48.709 288.85 47.8859 287.614 46.7813C286.373 45.6768 285.758 44.2134 285.758 42.3771C285.758 40.8716 286.172 39.5489 287.008 38.4161C287.836 37.2835 288.971 36.404 290.406 35.7778C291.849 35.1447 293.477 34.835 295.29 34.835C297.132 34.835 298.745 35.1447 300.138 35.7778C301.53 36.404 302.623 37.2764 303.415 38.388C304.207 39.4996 304.621 40.773 304.643 42.2153H300.116Z" fill="white"/>
</svg>
